# xmcd
#
# Track frame offsets:
#	150
#	25681
#	51484
#	76103
#	94900
#	112774
#	134655
#	153083
#	164138
#	191622
#	205294
#	217792
#	233864
#	247565
#
# Disc length: 3465 seconds
#
# Revision: 0
# Processed by: cddbd v1.5.2PL0 Copyright (c) Steve Scherf et al.
# Submitted via: audiograbber 1.83.01
#
DISCID=b00d870e
DTITLE=Czerwone Gitary - Spokoj Serca
DYEAR=1900
DGENRE=PL
TTITLE0=Nie jestes cisza 
TTITLE1=Nocne calowanie
TTITLE2=Gdy trudno zasnac
TTITLE3=Plona gory, plona lasy 
TTITLE4=Jestes, Dziewczyno, tesknota
TTITLE5=Ucze sie zyc
TTITLE6=Pierwsza noc
TTITLE7=Spokoj serca
TTITLE8=Pejzaz masta
TTITLE9=Ziema spiewa
TTITLE10=Droga, ktora ide
TTITLE11=Anna M.
TTITLE12=Stoi czlowiek sam
TTITLE13=Hej, przyjacieu
EXTD=
EXTT0=
EXTT1=
EXTT2=
EXTT3=
EXTT4=
EXTT5=
EXTT6=
EXTT7=
EXTT8=
EXTT9=
EXTT10=
EXTT11=
EXTT12=
EXTT13=
PLAYORDER=
